{
  "asset": {
    "generator": "glTF-Transform v4.3.0",
    "version": "2.0"
  },
  "accessors": [
    {
      "type": "SCALAR",
      "componentType": 5123,
      "count": 86841,
      "normalized": false,
      "byteOffset": 0,
      "bufferView": 0
    },
    {
      "type": "VEC3",
      "componentType": 5120,
      "count": 26146,
      "normalized": true,
      "byteOffset": 0,
      "bufferView": 1
    },
    {
      "type": "VEC3",
      "componentType": 5122,
      "count": 26146,
      "max": [
        32767,
        24847,
        26391
      ],
      "min": [
        -32767,
        -24847,
        -26391
      ],
      "normalized": true,
      "byteOffset": 0,
      "bufferView": 2
    },
    {
      "type": "VEC2",
      "componentType": 5123,
      "count": 26146,
      "normalized": true,
      "byteOffset": 0,
      "bufferView": 3
    }
  ],
  "bufferViews": [
    {
      "buffer": 1,
      "byteOffset": 0,
      "byteLength": 173682,
      "target": 34963,
      "extensions": {
        "EXT_meshopt_compression": {
          "buffer": 0,
          "byteOffset": 0,
          "byteLength": 30219,
          "mode": "TRIANGLES",
          "byteStride": 2,
          "count": 86841
        }
      }
    },
    {
      "buffer": 1,
      "byteOffset": 173684,
      "byteLength": 104584,
      "target": 34962,
      "byteStride": 4,
      "extensions": {
        "EXT_meshopt_compression": {
          "buffer": 0,
          "byteOffset": 30220,
          "byteLength": 53806,
          "mode": "ATTRIBUTES",
          "filter": "OCTAHEDRAL",
          "byteStride": 4,
          "count": 26146
        }
      }
    },
    {
      "buffer": 1,
      "byteOffset": 278268,
      "byteLength": 209168,
      "target": 34962,
      "byteStride": 8,
      "extensions": {
        "EXT_meshopt_compression": {
          "buffer": 0,
          "byteOffset": 84028,
          "byteLength": 128575,
          "mode": "ATTRIBUTES",
          "byteStride": 8,
          "count": 26146
        }
      }
    },
    {
      "buffer": 1,
      "byteOffset": 487436,
      "byteLength": 104584,
      "target": 34962,
      "byteStride": 4,
      "extensions": {
        "EXT_meshopt_compression": {
          "buffer": 0,
          "byteOffset": 212604,
          "byteLength": 80754,
          "mode": "ATTRIBUTES",
          "byteStride": 4,
          "count": 26146
        }
      }
    }
  ],
  "samplers": [
    {
      "magFilter": 9729,
      "minFilter": 9987,
      "wrapS": 10497,
      "wrapT": 10497
    }
  ],
  "textures": [
    {
      "sampler": 0,
      "extensions": {
        "EXT_texture_webp": {
          "source": 1
        }
      }
    },
    {
      "sampler": 0,
      "extensions": {
        "EXT_texture_webp": {
          "source": 0
        }
      }
    },
    {
      "sampler": 0,
      "extensions": {
        "EXT_texture_webp": {
          "source": 2
        }
      }
    }
  ],
  "images": [
    {
      "name": "Image_2",
      "mimeType": "image/webp",
      "uri": "normal_1.webp"
    },
    {
      "name": "Image_0",
      "mimeType": "image/webp",
      "uri": "baseColor_1.webp"
    },
    {
      "name": "Image_1",
      "mimeType": "image/webp",
      "uri": "metallicRoughness_1.webp"
    }
  ],
  "buffers": [
    {
      "uri": "apple-basket.bin",
      "byteLength": 293360
    },
    {
      "byteLength": 592020,
      "extensions": {
        "EXT_meshopt_compression": {
          "fallback": true
        }
      }
    }
  ],
  "materials": [
    {
      "name": "Material_0.011",
      "doubleSided": true,
      "pbrMetallicRoughness": {
        "baseColorTexture": {
          "index": 0
        },
        "metallicRoughnessTexture": {
          "index": 2
        }
      },
      "normalTexture": {
        "index": 1
      }
    }
  ],
  "meshes": [
    {
      "name": "Mesh_0",
      "primitives": [
        {
          "attributes": {
            "NORMAL": 1,
            "POSITION": 2,
            "TEXCOORD_0": 3
          },
          "mode": 4,
          "material": 0,
          "indices": 0
        }
      ]
    }
  ],
  "nodes": [
    {
      "name": "Mesh_0",
      "translation": [
        -0.00018890202045440674,
        0.125,
        -0.00004298985004425049
      ],
      "scale": [
        0.16484804451465607,
        0.16484804451465607,
        0.16484804451465607
      ],
      "mesh": 0
    }
  ],
  "scenes": [
    {
      "name": "Scene",
      "nodes": [
        0
      ]
    }
  ],
  "scene": 0,
  "extensionsUsed": [
    "EXT_meshopt_compression",
    "EXT_texture_webp",
    "KHR_mesh_quantization"
  ],
  "extensionsRequired": [
    "EXT_meshopt_compression",
    "EXT_texture_webp",
    "KHR_mesh_quantization"
  ]
}