{
  "asset": {
    "generator": "glTF-Transform v4.3.0",
    "version": "2.0"
  },
  "accessors": [
    {
      "type": "SCALAR",
      "componentType": 5123,
      "count": 15000,
      "normalized": false,
      "byteOffset": 0,
      "bufferView": 0
    },
    {
      "type": "VEC3",
      "componentType": 5120,
      "count": 5209,
      "normalized": true,
      "byteOffset": 0,
      "bufferView": 1
    },
    {
      "type": "VEC3",
      "componentType": 5122,
      "count": 5209,
      "max": [
        24098,
        32767,
        14021
      ],
      "min": [
        -24098,
        -32767,
        -14021
      ],
      "normalized": true,
      "byteOffset": 0,
      "bufferView": 2
    },
    {
      "type": "VEC2",
      "componentType": 5123,
      "count": 5209,
      "normalized": true,
      "byteOffset": 0,
      "bufferView": 3
    }
  ],
  "bufferViews": [
    {
      "buffer": 1,
      "byteOffset": 0,
      "byteLength": 30000,
      "target": 34963,
      "extensions": {
        "EXT_meshopt_compression": {
          "buffer": 0,
          "byteOffset": 0,
          "byteLength": 5409,
          "mode": "TRIANGLES",
          "byteStride": 2,
          "count": 15000
        }
      }
    },
    {
      "buffer": 1,
      "byteOffset": 30000,
      "byteLength": 20836,
      "target": 34962,
      "byteStride": 4,
      "extensions": {
        "EXT_meshopt_compression": {
          "buffer": 0,
          "byteOffset": 5412,
          "byteLength": 10772,
          "mode": "ATTRIBUTES",
          "filter": "OCTAHEDRAL",
          "byteStride": 4,
          "count": 5209
        }
      }
    },
    {
      "buffer": 1,
      "byteOffset": 50836,
      "byteLength": 41672,
      "target": 34962,
      "byteStride": 8,
      "extensions": {
        "EXT_meshopt_compression": {
          "buffer": 0,
          "byteOffset": 16184,
          "byteLength": 26460,
          "mode": "ATTRIBUTES",
          "byteStride": 8,
          "count": 5209
        }
      }
    },
    {
      "buffer": 1,
      "byteOffset": 92508,
      "byteLength": 20836,
      "target": 34962,
      "byteStride": 4,
      "extensions": {
        "EXT_meshopt_compression": {
          "buffer": 0,
          "byteOffset": 42644,
          "byteLength": 17395,
          "mode": "ATTRIBUTES",
          "byteStride": 4,
          "count": 5209
        }
      }
    }
  ],
  "samplers": [
    {
      "magFilter": 9729,
      "minFilter": 9987,
      "wrapS": 10497,
      "wrapT": 10497
    }
  ],
  "textures": [
    {
      "sampler": 0,
      "extensions": {
        "EXT_texture_webp": {
          "source": 1
        }
      }
    },
    {
      "sampler": 0,
      "extensions": {
        "EXT_texture_webp": {
          "source": 0
        }
      }
    },
    {
      "sampler": 0,
      "extensions": {
        "EXT_texture_webp": {
          "source": 2
        }
      }
    }
  ],
  "images": [
    {
      "name": "Baked_Normal",
      "mimeType": "image/webp",
      "uri": "normal_1.webp"
    },
    {
      "name": "texture",
      "mimeType": "image/webp",
      "uri": "baseColor_1.webp"
    },
    {
      "name": "Baked_MetallicRoughness",
      "mimeType": "image/webp",
      "uri": "metallicRoughness_1.webp"
    }
  ],
  "buffers": [
    {
      "uri": "leafy-explorer-smile.bin",
      "byteLength": 60040
    },
    {
      "byteLength": 113344,
      "extensions": {
        "EXT_meshopt_compression": {
          "fallback": true
        }
      }
    }
  ],
  "materials": [
    {
      "name": "BakedMaterial.001",
      "doubleSided": true,
      "pbrMetallicRoughness": {
        "baseColorTexture": {
          "index": 0
        },
        "metallicRoughnessTexture": {
          "index": 2
        }
      },
      "normalTexture": {
        "index": 1
      }
    }
  ],
  "meshes": [
    {
      "name": "Mesh1.0",
      "primitives": [
        {
          "attributes": {
            "NORMAL": 1,
            "POSITION": 2,
            "TEXCOORD_0": 3
          },
          "mode": 4,
          "material": 0,
          "indices": 0
        }
      ]
    }
  ],
  "nodes": [
    {
      "name": "Mesh1.0",
      "translation": [
        0.0025699734687805176,
        0.0002105236053466797,
        0.000023499131202697754
      ],
      "scale": [
        1.0076395273208618,
        1.0076395273208618,
        1.0076395273208618
      ],
      "mesh": 0
    }
  ],
  "scenes": [
    {
      "name": "Scene",
      "nodes": [
        0
      ]
    }
  ],
  "scene": 0,
  "extensionsUsed": [
    "EXT_meshopt_compression",
    "EXT_texture_webp",
    "KHR_mesh_quantization"
  ],
  "extensionsRequired": [
    "EXT_meshopt_compression",
    "EXT_texture_webp",
    "KHR_mesh_quantization"
  ]
}