{
  "asset": {
    "generator": "glTF-Transform v4.3.0",
    "version": "2.0"
  },
  "accessors": [
    {
      "type": "SCALAR",
      "componentType": 5123,
      "count": 91242,
      "normalized": false,
      "byteOffset": 0,
      "bufferView": 0
    },
    {
      "type": "VEC3",
      "componentType": 5120,
      "count": 22895,
      "normalized": true,
      "byteOffset": 0,
      "bufferView": 1
    },
    {
      "type": "VEC3",
      "componentType": 5122,
      "count": 22895,
      "max": [
        29679,
        32767,
        30603
      ],
      "min": [
        -29679,
        -32767,
        -30603
      ],
      "normalized": true,
      "byteOffset": 0,
      "bufferView": 2
    },
    {
      "type": "VEC2",
      "componentType": 5123,
      "count": 22895,
      "normalized": true,
      "byteOffset": 0,
      "bufferView": 3
    }
  ],
  "bufferViews": [
    {
      "buffer": 1,
      "byteOffset": 0,
      "byteLength": 182484,
      "target": 34963,
      "extensions": {
        "EXT_meshopt_compression": {
          "buffer": 0,
          "byteOffset": 0,
          "byteLength": 32623,
          "mode": "TRIANGLES",
          "byteStride": 2,
          "count": 91242
        }
      }
    },
    {
      "buffer": 1,
      "byteOffset": 182484,
      "byteLength": 91580,
      "target": 34962,
      "byteStride": 4,
      "extensions": {
        "EXT_meshopt_compression": {
          "buffer": 0,
          "byteOffset": 32624,
          "byteLength": 45552,
          "mode": "ATTRIBUTES",
          "filter": "OCTAHEDRAL",
          "byteStride": 4,
          "count": 22895
        }
      }
    },
    {
      "buffer": 1,
      "byteOffset": 274064,
      "byteLength": 183160,
      "target": 34962,
      "byteStride": 8,
      "extensions": {
        "EXT_meshopt_compression": {
          "buffer": 0,
          "byteOffset": 78176,
          "byteLength": 109965,
          "mode": "ATTRIBUTES",
          "byteStride": 8,
          "count": 22895
        }
      }
    },
    {
      "buffer": 1,
      "byteOffset": 457224,
      "byteLength": 91580,
      "target": 34962,
      "byteStride": 4,
      "extensions": {
        "EXT_meshopt_compression": {
          "buffer": 0,
          "byteOffset": 188144,
          "byteLength": 69228,
          "mode": "ATTRIBUTES",
          "byteStride": 4,
          "count": 22895
        }
      }
    }
  ],
  "samplers": [
    {
      "magFilter": 9729,
      "minFilter": 9987,
      "wrapS": 10497,
      "wrapT": 10497
    }
  ],
  "textures": [
    {
      "sampler": 0,
      "extensions": {
        "EXT_texture_webp": {
          "source": 2
        }
      }
    },
    {
      "sampler": 0,
      "extensions": {
        "EXT_texture_webp": {
          "source": 0
        }
      }
    },
    {
      "sampler": 0,
      "extensions": {
        "EXT_texture_webp": {
          "source": 1
        }
      }
    },
    {
      "sampler": 0,
      "extensions": {
        "EXT_texture_webp": {
          "source": 3
        }
      }
    }
  ],
  "images": [
    {
      "name": "Image_3",
      "mimeType": "image/webp",
      "uri": "emissive_1.webp"
    },
    {
      "name": "Image_2",
      "mimeType": "image/webp",
      "uri": "normal_1.webp"
    },
    {
      "name": "Image_0",
      "mimeType": "image/webp",
      "uri": "baseColor_1.webp"
    },
    {
      "name": "Image_1",
      "mimeType": "image/webp",
      "uri": "metallicRoughness_1.webp"
    }
  ],
  "buffers": [
    {
      "uri": "banana.bin",
      "byteLength": 257372
    },
    {
      "byteLength": 548804,
      "extensions": {
        "EXT_meshopt_compression": {
          "fallback": true
        }
      }
    }
  ],
  "materials": [
    {
      "name": "Material_0.001",
      "doubleSided": true,
      "pbrMetallicRoughness": {
        "baseColorTexture": {
          "index": 0
        },
        "metallicRoughnessTexture": {
          "index": 3
        }
      },
      "emissiveFactor": [
        1,
        1,
        1
      ],
      "emissiveTexture": {
        "index": 1
      },
      "normalTexture": {
        "index": 2
      }
    }
  ],
  "meshes": [
    {
      "name": "Mesh_0",
      "primitives": [
        {
          "attributes": {
            "NORMAL": 1,
            "POSITION": 2,
            "TEXCOORD_0": 3
          },
          "mode": 4,
          "material": 0,
          "indices": 0
        }
      ]
    }
  ],
  "nodes": [
    {
      "name": "Mesh_0",
      "translation": [
        -0.00009468942880630493,
        0.09999999776482582,
        -0.00014114752411842346
      ],
      "scale": [
        0.10000000521540642,
        0.10000000521540642,
        0.10000000521540642
      ],
      "mesh": 0
    }
  ],
  "scenes": [
    {
      "name": "Scene",
      "nodes": [
        0
      ]
    }
  ],
  "scene": 0,
  "extensionsUsed": [
    "EXT_meshopt_compression",
    "EXT_texture_webp",
    "KHR_mesh_quantization"
  ],
  "extensionsRequired": [
    "EXT_meshopt_compression",
    "EXT_texture_webp",
    "KHR_mesh_quantization"
  ]
}